<svg xmlns="http://www.w3.org/2000/svg" viewBox="0 0 1904.19 588.34"><defs><style>.cls-1,.cls-2{fill:none;stroke-width:10px;}.cls-1,.cls-2,.cls-4{stroke:#fff;stroke-miterlimit:10;}.cls-1{stroke-linecap:round;}.cls-3{fill:#ffd768;}.cls-3,.cls-6{opacity:0.5;}.cls-4{fill:#fff;}.cls-5{fill:#c7ddeb;}.cls-6{fill:#fdc345;}</style></defs><g id="line"><path class="cls-1" d="M8.92,277.15C39,267.89,64.25,249.56,97.7,232.26c86.37-44.7,184.27-95.35,279.39-36.61,15.37,9.49,26.19,20.33,33.07,33.14,6.39,11.88,9.18,25.41,8.29,40.22-2,32.64-18.27,61.6-32.07,90.35-8,16.57-13.91,35.42-9.2,53.2,5.45,20.58,24.44,35.36,44.78,41.68,44,13.66,95.7,7.89,137.69-7.41" transform="translate(-3.92 -14.72)"/><path class="cls-1" d="M568.54,468.77A241.62,241.62,0,0,1,425.4,485.53c-39.95-7.57-76.78-37.64-76.92-81.28-.07-21.94,7.62-43.14,16.5-63.21,11.42-25.82,31.39-56.31,23.65-85.67-4.64-17.59-19-31.31-35.25-39.49-82.63-41.6-171.33,5.55-245,43.7-33.5,17.33-65.14,33.7-96.06,43.84" transform="translate(-3.92 -14.72)"/><path class="cls-2" d="M1430.51,165.92c34.74-8.87,67.62-25.6,101.27-38.25,37-13.92,74-28.49,113-36.68,37.17-7.81,79-8.17,116.59.63,35.38,8.3,69.64,28.09,87.55,59.31,25.27,44,8.33,89-18.12,126.88-12.81,18.34-23.88,34.18-21.51,54.36,2.16,18.37,16.91,32.21,33.19,39.89,21.38,10.08,41.52,17.16,64.85,20.9" transform="translate(-3.92 -14.72)"/><path class="cls-2" d="M1904.2,421.27c-51.14-9.47-118.22-22.57-125.14-86.52-3.45-31.82,12.82-55.39,27.17-76.19,7.43-10.77,14.44-20.94,18.87-31.88,9.49-23.44,9.81-46.93.89-64.45-8.57-16.84-24.91-27.43-37.1-33.35-71.18-34.54-150.12-12.81-219.66,14.55-43.43,17.09-86.51,35.08-129.75,52.64" transform="translate(-3.92 -14.72)"/><path class="cls-3" d="M626.57,452.8l7.88,22.67c4,11.49,16.11,17.71,27.08,13.9l49.25-17.12-9.35-25.59S650,478.27,626.57,452.8Z" transform="translate(-3.92 -14.72)"/><path class="cls-3" d="M702.61,441.82l4.27,12.89c7.36,22.22,30.48,34,51.64,26.25l105.71-38.57L847.12,390.7Z" transform="translate(-3.92 -14.72)"/><path class="cls-3" d="M588.2,442.14h33.72a0,0,0,0,1,0,0V483a0,0,0,0,1,0,0H588.2a20,20,0,0,1-20-20v-.93a20,20,0,0,1,20-20Z" transform="translate(-122.79 206.27) rotate(-19.16)"/><path class="cls-2" d="M838.6,450.52l-88.94,30.91a34.15,34.15,0,0,1-43.46-21l-33.88-97.51a34.14,34.14,0,0,1,21-43.45l88.94-30.91Z" transform="translate(-3.92 -14.72)"/><path class="cls-2" d="M710.78,472.25l-49.25,17.12c-11,3.81-23.09-2.41-27.08-13.9l-27.66-79.59c-4-11.48,1.66-23.88,12.62-27.69l49.25-17.12" transform="translate(-3.92 -14.72)"/><rect class="cls-2" x="809.59" y="266.49" width="31.01" height="195.9" rx="13.68" transform="translate(-77.83 276.35) rotate(-19.17)"/><path class="cls-4" d="M652.44,389.18h0a3.46,3.46,0,0,1,4.41,2.13l19.38,55.77a3.46,3.46,0,0,1-2.13,4.4h0a3.47,3.47,0,0,1-4.41-2.13l-19.38-55.77A3.46,3.46,0,0,1,652.44,389.18Z" transform="translate(-3.92 -14.72)"/><path class="cls-4" d="M636.1,394.86h0a3.46,3.46,0,0,1,4.41,2.13l19.38,55.77a3.46,3.46,0,0,1-2.13,4.4h0a3.47,3.47,0,0,1-4.41-2.13L634,399.26A3.45,3.45,0,0,1,636.1,394.86Z" transform="translate(-3.92 -14.72)"/><path class="cls-2" d="M583.16,422.36h38.66a0,0,0,0,1,0,0v46.84a0,0,0,0,1,0,0H583.16a22.89,22.89,0,0,1-22.89-22.89v-1.07a22.89,22.89,0,0,1,22.89-22.89Z" transform="translate(-117.5 204.02) rotate(-19.16)"/><path class="cls-3" d="M1428.54,219.67l-44,14.83-11.15-33.1,44-14.84a17.47,17.47,0,0,1,22.13,11h0A17.47,17.47,0,0,1,1428.54,219.67Z" transform="translate(-3.92 -14.72)"/><path class="cls-3" d="M1385.74,234.72l-67.28,24,6.18,45.68,51.57-19.92c12.88-5,21.29-24,18.79-42.49h0C1394.26,236.54,1390,233.19,1385.74,234.72Z" transform="translate(-3.92 -14.72)"/><path class="cls-3" d="M1285.84,280.37l10.57,31.36a15.2,15.2,0,0,0,19.38,9.3l.25-.09a15.2,15.2,0,0,0,9.81-19.13l-10.48-31.12" transform="translate(-3.92 -14.72)"/><line class="cls-5" x1="1241.21" y1="144.82" x2="1281.51" y2="264.42"/><path class="cls-3" d="M1309.22,312.87l-140.7,48.26c-7.83,2.64-15.8-.06-17.8-6l-6.53-19.37c-2-6,2.71-12.92,10.53-15.56l131.5-44.31" transform="translate(-3.92 -14.72)"/><rect class="cls-6" x="1137.77" y="267.45" width="76.35" height="13.86" transform="translate(-29.97 375.1) rotate(-18.62)"/><path class="cls-2" d="M1280.21,153l49.59-16.71a23.67,23.67,0,0,1,30,14.87L1392.39,248a23.66,23.66,0,0,1-14.87,30l-49.59,16.71" transform="translate(-3.92 -14.72)"/><path class="cls-2" d="M1427.66,206.9,1384,221.61l-14.83-44,43.64-14.7a23.21,23.21,0,0,1,29.42,14.59h0A23.22,23.22,0,0,1,1427.66,206.9Z" transform="translate(-3.92 -14.72)"/><polyline class="cls-2" points="1295.48 300.26 1158.81 346.31 1104.51 185.15 1241.19 139.1"/><rect class="cls-2" x="1135.6" y="254.2" width="76.35" height="27.47" transform="translate(-28.03 374.07) rotate(-18.62)"/><path class="cls-2" d="M1051.3,235.21H1119a0,0,0,0,1,0,0V257a0,0,0,0,1,0,0H1051.3a10.06,10.06,0,0,1-10.06-10.06v-1.64A10.06,10.06,0,0,1,1051.3,235.21Z" transform="translate(-25.96 343.02) rotate(-18.62)"/><path class="cls-2" d="M1082.84,328.81h67.66a0,0,0,0,1,0,0v21.75a0,0,0,0,1,0,0h-67.66a10.06,10.06,0,0,1-10.06-10.06v-1.64A10.06,10.06,0,0,1,1082.84,328.81Z" transform="translate(-54.19 357.99) rotate(-18.62)"/><line class="cls-1" x1="1136.77" y1="195.48" x2="1198.56" y2="174.67"/><rect class="cls-2" x="1269.89" y="134.99" width="31.07" height="190.99" rx="15.4" transform="translate(-10.24 407.69) rotate(-18.62)"/><line class="cls-1" x1="1211.07" y1="170.64" x2="1220.61" y2="167.59"/><path class="cls-4" d="M1329,175.81h0a3.45,3.45,0,0,1,4.39,2.16l19,55.9a3.47,3.47,0,0,1-2.17,4.39h0a3.45,3.45,0,0,1-4.38-2.16l-19-55.9A3.46,3.46,0,0,1,1329,175.81Z" transform="translate(-3.92 -14.72)"/><path class="cls-4" d="M1312.61,181.37h0a3.47,3.47,0,0,1,4.39,2.16l19,55.91a3.47,3.47,0,0,1-2.16,4.39h0a3.47,3.47,0,0,1-4.39-2.17l-19-55.9A3.47,3.47,0,0,1,1312.61,181.37Z" transform="translate(-3.92 -14.72)"/><line class="cls-1" x1="947.33" y1="5" x2="940.54" y2="112.25"/><line class="cls-1" x1="1044.66" y1="471.7" x2="1085.88" y2="564.9"/><line class="cls-1" x1="799.25" y1="58.81" x2="860.31" y2="134.77"/><line class="cls-1" x1="1112.51" y1="413.46" x2="1190.46" y2="453.84"/><line class="cls-1" x1="955.19" y1="583.34" x2="959.25" y2="491.54"/><line class="cls-1" x1="831.95" y1="554.34" x2="878.66" y2="481.3"/><line class="cls-1" x1="1041.61" y1="136.67" x2="1099.24" y2="73.32"/><path class="cls-1" d="M769.58,314.37l-66.79,22.9s-10.69,5.34-8.4,14.88" transform="translate(-3.92 -14.72)"/><line class="cls-1" x1="792.76" y1="196.6" x2="706.88" y2="164.92"/></g></svg>