<svg id="Capa_1" data-name="Capa 1" xmlns="http://www.w3.org/2000/svg" viewBox="0 0 448 512"><defs><style>.cls-1{fill:#fffdfd;}</style></defs><path d="M400,32H48A48,48,0,0,0,0,80V432a48,48,0,0,0,48,48H400a48,48,0,0,0,48-48V80A48,48,0,0,0,400,32Z"/><path class="cls-1" d="M348.32,197.25c.2,2.78.2,5.56.2,8.34C348.52,290.39,284,388.1,166,388.1a181.24,181.24,0,0,1-98.5-28.79A133.76,133.76,0,0,0,83,360.1a128.44,128.44,0,0,0,79.63-27.41,64.24,64.24,0,0,1-60-44.48,81.54,81.54,0,0,0,12.11,1A67.8,67.8,0,0,0,131.65,287a64.17,64.17,0,0,1-51.44-63v-.79a64.76,64.76,0,0,0,29,8.14,64.24,64.24,0,0,1-19.86-85.8,182.32,182.32,0,0,0,132.27,67.13A71.93,71.93,0,0,1,220,198a64.21,64.21,0,0,1,111-43.89,126.31,126.31,0,0,0,40.72-15.49A64,64,0,0,1,343.56,174a128.38,128.38,0,0,0,36.93-9.93,137.87,137.87,0,0,1-32.17,33.17Z"/></svg>