<svg id="Capa_1" data-name="Capa 1" xmlns="http://www.w3.org/2000/svg" viewBox="0 0 448 512"><defs><style>.cls-1{fill:#fffdfd;}</style></defs><path d="M400,32H48A48,48,0,0,0,0,80V432a48,48,0,0,0,48,48H400a48,48,0,0,0,48-48V80A48,48,0,0,0,400,32Z"/><path class="cls-1" d="M403.22,257.08a179.22,179.22,0,0,0-358.44,0c0,89.45,65.54,163.6,151.22,177.06V308.89H150.47V257.08H196V217.6c0-44.92,26.74-69.72,67.69-69.72a276.41,276.41,0,0,1,40.12,3.49v44.09h-22.6c-22.26,0-29.21,13.81-29.21,28v33.64h49.71l-7.95,51.81H252V434.14C337.68,420.68,403.22,346.53,403.22,257.08Z"/></svg>